<?xml version="1.0" encoding="utf-8"?>
<!-- Generator: Adobe Illustrator 17.1.0, SVG Export Plug-In . SVG Version: 6.00 Build 0)  -->
<!DOCTYPE svg PUBLIC "-//W3C//DTD SVG 1.1//EN" "http://www.w3.org/Graphics/SVG/1.1/DTD/svg11.dtd">
<svg version="1.1" id="Capa_1" xmlns="http://www.w3.org/2000/svg" xmlns:xlink="http://www.w3.org/1999/xlink" x="0px" y="0px"
	 viewBox="0 0 98 37" enable-background="new 0 0 98 37" xml:space="preserve">
<g id="Layer_x0020_1">
	<path fill="#0A0B0C" d="M26.4,11.5c19.3-16.6,40.8-7.1,50.9,2.8c2.4,1.4,3,2.4,3.9,3.4c1,0.1,1.1,0.4,1.1,0.5
		c0.8,4.4-0.2,7.1-4.2,7.1c-0.3-12.7-16.4-9.8-14.7,0.9c-17.9,0-21.9,0-32.2,0c0.8-10.4-14.7-13.6-15.2,0c-6.9-0.2-5.9-3.5-5.6-6.5
		C12.5,19.7,12.7,12.2,26.4,11.5z M70.8,18.3c3.3,0,6,2.6,6,5.8c0,3.2-2.7,5.8-6,5.8s-6-2.6-6-5.8C64.8,20.8,67.5,18.3,70.8,18.3z
		 M23.8,18.3c3.3,0,6,2.6,6,5.8c0,3.2-2.7,5.8-6,5.8c-3.3,0-6-2.6-6-5.8C17.7,20.8,20.5,18.3,23.8,18.3z M52.3,4.5
		C46.8,3.7,39.5,4.3,34,8.9c0,2.5,0,0.7,0,3.2c6.1,0,12.2-0.2,18.3-0.2C52.3,9.3,52.3,7,52.3,4.5z"/>
</g>
<path fill="#FFFFFF" d="M54.9,4.9c2.6,0.3,9.4,2.5,12.1,6.9c-3.9,0-7.9,0-11.9,0C55.1,9.5,54.9,7.2,54.9,4.9z"/>
</svg>
