<?xml version="1.0" encoding="utf-8"?>
<!-- Generator: Adobe Illustrator 17.1.0, SVG Export Plug-In . SVG Version: 6.00 Build 0)  -->
<!DOCTYPE svg PUBLIC "-//W3C//DTD SVG 1.1//EN" "http://www.w3.org/Graphics/SVG/1.1/DTD/svg11.dtd">
<svg version="1.1" id="vespa" xmlns="http://www.w3.org/2000/svg" xmlns:xlink="http://www.w3.org/1999/xlink" x="0px" y="0px"
	 viewBox="22.5 9.8 63 41" enable-background="new 22.5 9.8 63 41" xml:space="preserve">
<g>
	<g>
		<path d="M52.2,24.9L52.2,24.9L52.2,24.9c-0.2,0.2-0.5,0.5-9.1,1.1c-4.2,0.3-8.4,0.5-8.4,0.5l-0.1,0l-0.1-0.1
			c-1-1.6-0.9-4.7-0.9-4.8c0-0.5,0.7-0.5,0.9-0.5c0.8,0,2,0.2,2.1,0.3c1,0.1,2.9,0.2,5.7,0.2c4.8,0,10.7-0.2,10.7-0.2l0.2,0l0,0.2
			C53.4,22.8,52.3,24.8,52.2,24.9z"/>
	</g>
	<g>
		<path d="M42.4,39.4c0,3.6-2.9,6.5-6.5,6.5c-3.6,0-6.5-2.9-6.5-6.5c0-0.6,0.1-1.1,0.2-1.6h2.6c-0.2,0.5-0.3,1-0.3,1.6
			c0,2.2,1.8,4,4,4c2.2,0,4-1.8,4-4c0-0.6-0.1-1.1-0.3-1.6h2.6C42.4,38.3,42.4,38.8,42.4,39.4z"/>
		<path d="M45.9,34.9C45.9,34.9,45.9,34.9,45.9,34.9c0,0-0.1,0.6-0.4,1.2c-0.1,0.3-0.4,0.9-0.8,0.9H29.9c0.2-0.7,0.6-1.8,1.3-2.9
			c0.7-1.1,1.5-2.1,2.4-2.9c1.1-0.9,2.5-1.5,4-1.8c0.1,0,0.6-0.1,1.2-0.1c0.6-0.1,1.4-0.1,2.2-0.1c1.1,0,1.6,0.1,1.8,0.2
			c0,0,0.1,0,0.1,0c0,0,1.1,0.3,1.9,1.1C46,31.5,46.3,33,45.9,34.9z"/>
	</g>
	<g>
		<path d="M79.3,39.4c0,3.6-2.9,6.5-6.5,6.5s-6.5-2.9-6.5-6.5c0-0.2,0-0.4,0-0.6c0.9-0.2,1.9-0.7,3-1.4c-0.3,0.6-0.5,1.3-0.5,2
			c0,2.2,1.8,4,4,4c2.2,0,4-1.8,4-4c0-2.2-1.8-4-4-4c-0.2,0-0.5,0-0.7,0.1c0,0,0.1-0.1,0.1-0.1c0.3-0.1,1.7-0.7,4.7-1
			C78.3,35.6,79.3,37.4,79.3,39.4z"/>
		<g>
			<g>
				<g>
					<path d="M63.6,34.7c-0.4,0.9-1,2-1.7,2.7l-16-0.1c0.7-0.8,0.9-2.2,0.9-2.2c1.1-5.3-3.7-6.5-3.7-6.5c-0.5-0.2-1.3-0.3-2.1-0.3
						c-1.7,0-3.5,0.3-3.5,0.3c-5.8,1.1-7.9,6.5-8.4,8.5l-1.4,0c0.2-0.5,0.6-1.8,1.5-3.4c1-1.9,2.9-4.5,5.9-6.3
						c1.1-0.1,14.8-1.4,16.7-1.4c0,0,0.1,0,0.1,0c0.1,0.2,0.2,0.5,0.2,0.8c0,0.1-0.1,0.1-0.1,0.2c0,0-0.1,0-0.1,0.1
						c-0.4,0.4-3.4,3.6-2.7,6.4c0.3,1.4,1.6,2.5,3.7,3.2c0,0,0.1,0,0.1,0c0.1,0,0.9,0,1.9,0c5.2,0,7-0.6,7.6-1.1v0
						C62.5,35.5,63,35.1,63.6,34.7z"/>
				</g>
			</g>
			<path d="M70.6,29.4c-0.3,0.1-0.6,0.2-0.9,0.3c-0.6,0.2-3.4,1.2-6,8l0,0c-1.5,1.6-2.6,1.8-3,1.8c-0.1,0-0.1,0-0.2,0
				c-0.1,0-0.2-0.1-0.2-0.2c0-0.1,0.1-0.2,0.2-0.2c0.1,0,0.1,0,0.2,0c0,0,0,0,0.1,0c0,0,0.1,0,0.1,0c0,0,0,0,0.1,0c0,0,0.1,0,0.1,0
				c0,0,0,0,0.1,0c0,0,0.1,0,0.1,0c0,0,0,0,0.1,0c0,0,0.1,0,0.1,0c0,0,0,0,0.1,0c0,0,0.1,0,0.1-0.1c0,0,0,0,0,0c0,0,0.1,0,0.1-0.1
				c0,0,0,0,0,0c0,0,0.1,0,0.1-0.1c0,0,0,0,0,0c0,0,0.1-0.1,0.1-0.1c0,0,0,0,0,0c0,0,0.1-0.1,0.1-0.1c0,0,0,0,0,0
				c0,0,0.1-0.1,0.1-0.1c0,0,0,0,0,0c0,0,0.1-0.1,0.1-0.1c0,0,0,0,0,0c0,0,0.1-0.1,0.1-0.1c0,0,0,0,0,0c0,0,0.1-0.1,0.1-0.1
				c0,0,0,0,0,0c0,0,0.1-0.1,0.1-0.1c0,0,0,0,0,0c0.5-0.5,0.8-1.2,1.2-1.8c0,0,0,0,0,0c0.1-0.2,0.2-0.3,0.3-0.5c0,0,0,0,0,0
				c0.1-0.3,0.2-0.5,0.3-0.8c0,0,0,0,0,0c0.1-0.2,0.1-0.3,0.2-0.5c0,0,0,0,0,0c0.1-0.2,0.1-0.3,0.2-0.5c0,0,0,0,0,0c0,0,0,0,0,0
				c0.3-0.9,0.5-1.7,0.7-2.1c0,0,0,0,0,0c0,0,0,0,0-0.1c0,0,0,0,0,0c0,0,0-0.1,0-0.1c0,0,0,0,0,0c0,0,0,0,0,0c0,0,0,0,0,0
				c0,0,0,0,0,0c0,0,0,0,0,0c0,0,0,0,0,0c0,0,0,0,0,0c0,0,0,0,0,0c0,0,0,0,0,0c0,0,0,0,0,0c0,0,0,0,0,0v0c0,0,0,0,0,0c0,0,0,0,0,0
				c0.8-1.9-1.4-7.5-1.4-7.5c0,0,0,0,0,0c-0.9-2.7,0-4.3,0-4.4c0-0.1,0.1-0.1,0.2-0.1c0,0,0,0,0,0c0.1,0,0.1,0,0.2,0.1l3.3,6.8
				c0.3,0.5,1,1,1.1,1.1c0.7,0.3,1.2,0.9,1.4,1.7C70.5,28.8,70.6,29.1,70.6,29.4z"/>
			<path d="M65.1,14.3v3.8c-0.1,0-0.2,0-0.3-0.1c-0.1,0-0.2,0-0.3-0.1c0,0,0,0,0,0c-0.4,0-0.7,0.2-0.9,0.5c-0.1,0.1-0.5,1-0.6,2.4
				C62.8,21,62.7,21,62.6,21c-0.1,0-0.1,0-0.1,0C60.1,15.3,64,14.5,65.1,14.3z"/>
		</g>
		<path d="M79.1,33.5c-5.3,0.1-7.4,1.2-7.4,1.2c-3.6,2.9-5.6,3.4-6.5,3.4c-0.6,0-0.8-0.2-0.8-0.2c2.6-6.9,5.4-7.5,5.4-7.5
			c1.2-0.5,2.3-0.6,3.3-0.6C77.5,29.8,79.1,33.5,79.1,33.5z"/>
	</g>
	<path d="M60.8,18.6C60.8,18.6,60.7,18.6,60.8,18.6l-2.1,1c0,0,0,0-0.1,0c0,0-0.1,0-0.1-0.1L58.1,19c0-0.1,0-0.1,0-0.2l1.9-1.6
		c0,0,0.1,0,0.1,0h0c0,0,0.7,0,0.9,0.4C61.2,17.8,61.1,18.2,60.8,18.6z"/>
	<g>
		<path d="M65.9,18.1v-3.8C67.6,16.1,65.9,18.1,65.9,18.1z"/>
	</g>
</g>
</svg>
